<svg width="100%" height="100%" viewBox="0 0 240 68" fill="none" xmlns="http://www.w3.org/2000/svg">
<path fill-rule="evenodd" clip-rule="evenodd" d="M117.238 24.3747C118.388 24.958 119.25 25.9383 119.825 27.3159L126.175 26.5589C125.488 23.7666 124.05 21.7189 121.863 20.4283C119.675 19.1128 116.575 18.4551 112.588 18.4551C109.688 18.4551 107.175 18.815 105.075 19.5099C102.988 20.1801 101.413 21.1481 100.313 22.4139C99.2251 23.6797 98.6751 25.1689 98.6751 26.8939C98.6751 29.4504 99.5876 31.436 101.425 32.8632C103.275 34.2655 106.213 35.2335 110.2 35.7671L115.125 36.4497C116.875 36.6979 118.15 37.095 118.938 37.6659C119.75 38.2367 120.163 39.0186 120.163 40.0114C120.163 41.2524 119.538 42.1955 118.313 42.8409C117.113 43.4614 115.313 43.7716 112.9 43.7716C110.225 43.7716 108.213 43.3373 106.875 42.481C105.525 41.5874 104.725 40.2099 104.45 38.3236H97.8501C98.0751 40.6939 98.7376 42.6423 99.8626 44.1811C101.013 45.7076 102.65 46.8493 104.788 47.6063C106.95 48.3633 109.663 48.7356 112.913 48.7356C117.4 48.7356 120.838 47.9786 123.25 46.4398C125.688 44.8761 126.9 42.7043 126.9 39.8997C126.9 37.4301 126.063 35.4941 124.4 34.0918C122.738 32.6646 120.113 31.6718 116.525 31.1009L110.5 30.1702C108.513 29.8723 107.125 29.4876 106.363 29.0036C105.625 28.5196 105.25 27.7626 105.25 26.745C105.25 25.6777 105.875 24.8587 107.1 24.2878C108.338 23.7294 110.113 23.4439 112.438 23.4439C114.488 23.4439 116.088 23.7542 117.238 24.3747ZM139.675 37.0082L147.387 48.0283H154.325L144.187 33.7319L153.375 26.956H145.462L135.537 34.34V19.1997H129.425V48.0283H135.537V40.0362L139.675 37.0082ZM178.538 37.4051C178.538 40.8551 177.363 43.5978 175.013 45.6454C172.663 47.6683 169.488 48.6735 165.5 48.6735C161.513 48.6735 158.388 47.6931 156.15 45.7323C153.913 43.7715 152.788 41.0537 152.788 37.5789C152.788 35.3451 153.313 33.3843 154.35 31.6841C155.388 29.9839 156.875 28.6685 158.825 27.7253C160.8 26.7821 163.125 26.3105 165.8 26.3105C169.788 26.3105 172.913 27.2909 175.15 29.2517C177.4 31.1877 178.538 33.9055 178.538 37.4051ZM172.225 37.492C172.225 35.3947 171.65 33.7814 170.5 32.6521C169.375 31.498 167.763 30.9147 165.663 30.9147C163.588 30.9147 161.975 31.498 160.825 32.6521C159.675 33.8062 159.1 35.4195 159.1 37.492C159.1 39.5893 159.663 41.215 160.788 42.3816C161.938 43.5109 163.55 44.0818 165.625 44.0818C167.7 44.0818 169.313 43.5109 170.463 42.3816C171.638 41.215 172.225 39.5893 172.225 37.492ZM181.15 19.1997V48.0283H187.262V19.1997H181.15ZM207.275 48.016V45.1616C206.013 46.3406 204.663 47.2217 203.213 47.7802C201.788 48.3138 200.15 48.5868 198.288 48.5868C195.475 48.5868 193.313 48.0408 191.8 46.9363C190.3 45.807 189.538 44.2061 189.538 42.1336C189.538 39.8253 190.525 38.1003 192.488 36.971C194.463 35.8417 197.563 35.2212 201.8 35.1095L207.05 34.9854V34.1787C207.05 32.9998 206.613 32.0938 205.738 31.4733C204.863 30.828 203.613 30.5054 202 30.5054C198.913 30.5054 197.063 31.3616 196.463 33.0866L190.925 32.5654C191.363 30.4433 192.513 28.8672 194.375 27.8372C196.263 26.8196 198.875 26.2983 202.213 26.2983C209.35 26.2983 212.925 29.0658 212.925 34.6131V48.016H207.275ZM207.063 38.5347L201.938 38.6588C199.725 38.7084 198.1 38.9938 197.05 39.5027C196.038 39.9866 195.538 40.7313 195.538 41.7241C195.538 42.5803 195.913 43.2505 196.65 43.6973C197.413 44.1564 198.513 44.3798 199.938 44.3798C201.088 44.3798 202.138 44.2433 203.1 43.9703C204.063 43.6724 204.863 43.2629 205.525 42.7169C206.563 41.9102 207.088 40.8926 207.088 39.6516V38.5347H207.063ZM221.988 41.7241C221.438 40.9174 221.15 39.9991 221.125 38.9442V38.9318H239.763V37.1199C239.763 33.6947 238.7 31.0514 236.6 29.1651C234.525 27.2539 231.563 26.2983 227.738 26.2983C225.225 26.2983 223.025 26.7947 221.138 27.7875C219.275 28.7679 217.838 30.1206 216.825 31.8705C215.838 33.5955 215.35 35.5563 215.35 37.7652C215.35 41.2028 216.413 43.8834 218.55 45.7946C220.713 47.7057 223.725 48.6613 227.613 48.6613C231.025 48.6613 233.713 48.0656 235.65 46.8866C237.613 45.7077 238.888 43.8834 239.463 41.4386H233.763C233 43.3498 231.013 44.3053 227.813 44.3053C226.5 44.3053 225.338 44.082 224.325 43.6228C223.338 43.1636 222.563 42.5307 221.988 41.7241ZM232.288 31.8456C233.413 32.6523 234 33.794 234.05 35.2708H221.288C221.425 33.9305 222.088 32.8136 223.263 31.9201C224.463 31.039 225.913 30.5922 227.613 30.5922C229.613 30.5922 231.163 31.0142 232.288 31.8456Z" fill="currentColor"></path>
<path fill-rule="evenodd" clip-rule="evenodd" d="M16.8375 0.0385742C7.6125 0.0385742 0.125 7.42256 0.125 16.5316V16.9783C0.125 25.8267 7.4 32.9997 16.375 32.9997C25.35 32.9997 32.625 25.8267 32.625 16.9783V0.0385742H16.8375ZM35.3125 0.0507812H52.95C60.625 0.0507812 66.8375 6.18136 66.8375 13.7515V30.7037C57.225 31.0015 37.45 25.2805 35.3125 0.0507812ZM67.675 50.6962C67.675 59.8052 60.1875 67.1892 50.9625 67.1892H35.1875V50.2494C35.1875 41.401 42.4625 34.228 51.4375 34.228C60.4125 34.228 67.6875 41.4135 67.6875 50.2494L67.675 50.6962ZM32.4249 67.0402H14.7874C7.1124 67.0278 0.899902 60.8972 0.899902 53.3271V36.3625C10.5124 36.0771 30.2999 41.7981 32.4249 67.0402Z" fill="currentColor"></path>
</svg>